<svg height="1038" width="720" xmlns="http://www.w3.org/2000/svg">
<rect height="1038" fill="#555" width="720"></rect>
<text fill="#7f7" font-family="Courier New" font-size="12" xml:space="preserve">
<tspan x="10" y="26"></tspan>
<tspan x="10" y="42">&gt; npmtest-yarn@0.0.1 test /home/travis/build/npmtest/node-npmtest-yarn</tspan>
<tspan x="10" y="58">&gt; (set -e; export PORT=$(utility2 shServerPortRandom); utility2 test test.js)</tspan>
<tspan x="10" y="74"></tspan>
<tspan x="10" y="90"></tspan>
<tspan x="10" y="106">[MODE_BUILD=npmTest] - 2017-04-11T12:03:08Z - npm-testing /home/travis/build/npmtest/node-npmtes\</tspan>
<tspan x="10" y="122">t-yarn</tspan>
<tspan x="10" y="138"></tspan>
<tspan x="10" y="154">merging file:///home/travis/build/npmtest/node-npmtest-yarn/tmp/build/test-report.json to test-r\</tspan>
<tspan x="10" y="170">eport</tspan>
<tspan x="10" y="186">&gt; server listening on http-port 42090</tspan>
<tspan x="10" y="202">[node test-case 1 of 6 passed] - testCase_buildLib_default</tspan>
<tspan x="10" y="218">[node test-case 2 of 6 passed] - testCase_buildReadme_default</tspan>
<tspan x="10" y="234">[node test-case 3 of 6 passed] - testCase_buildTest_default</tspan>
<tspan x="10" y="250"></tspan>
<tspan x="10" y="266">browserTest - created electron entry-page /home/travis/build/npmtest/node-npmtest-yarn/tmp/elect\</tspan>
<tspan x="10" y="282">ron.15b5ce56ad80.d777bb8bff53.html</tspan>
<tspan x="10" y="298"></tspan>
<tspan x="10" y="314">[node test-case 4 of 6 passed] - testCase_buildApidoc_default</tspan>
<tspan x="10" y="330">Xlib:  extension "RANDR" missing on display ":99.0".</tspan>
<tspan x="10" y="346">merging file:///home/travis/build/npmtest/node-npmtest-yarn/tmp/build/test-report.json to test-r\</tspan>
<tspan x="10" y="362">eport</tspan>
<tspan x="10" y="378">Xlib:  extension "RANDR" missing on display ":99.0".</tspan>
<tspan x="10" y="394">[7380:0411/120311:WARNING:audio_manager.cc(314)] Multiple instances of AudioManager detected</tspan>
<tspan x="10" y="410">[7380:0411/120311:WARNING:audio_manager.cc(275)] Multiple instances of AudioManager detected</tspan>
<tspan x="10" y="426">[7404:0411/120311:ERROR:sandbox_linux.cc(343)] InitializeSandbox() called with multiple threads \</tspan>
<tspan x="10" y="442">in process gpu-process. </tspan>
<tspan x="10" y="458">[7380:0411/120311:ERROR:browser_gpu_channel_host_factory.cc(131)] Failed to create channel.</tspan>
<tspan x="10" y="474">&gt; </tspan>
<tspan x="10" y="490">browserTest - opened url http://127.0.0.1:42090?modeTest=1</tspan>
<tspan x="10" y="506"></tspan>
<tspan x="10" y="522">server listening on http-port 43967</tspan>
<tspan x="10" y="538">[node test-case 5 of 6 passed] - testCase_buildApp_default</tspan>
<tspan x="10" y="554"></tspan>
<tspan x="10" y="570">browserTest - created screenCapture file:///home/travis/build/npmtest/node-npmtest-yarn/tmp/buil\</tspan>
<tspan x="10" y="586">d/screenCapture.npmTest.browser.%2F.png</tspan>
<tspan x="10" y="602"></tspan>
<tspan x="10" y="618">browserTest - created screenCapture file:///home/travis/build/npmtest/node-npmtest-yarn/tmp/buil\</tspan>
<tspan x="10" y="634">d/screenCapture.npmTest.browser.%2F.html</tspan>
<tspan x="10" y="650"></tspan>
<tspan x="10" y="666">browserTest - exit-code 0 - http://127.0.0.1:42090?modeTest=1</tspan>
<tspan x="10" y="682"></tspan>
<tspan x="10" y="698"></tspan>
<tspan x="10" y="714">browserTest - merging test-report from /home/travis/build/npmtest/node-npmtest-yarn/tmp/test-rep\</tspan>
<tspan x="10" y="730">ort.npmTest.browser.%2F.json</tspan>
<tspan x="10" y="746"></tspan>
<tspan x="10" y="762">[node test-case 6 of 6 passed] - testCase_webpage_default</tspan>
<tspan x="10" y="778">merging file:///home/travis/build/npmtest/node-npmtest-yarn/tmp/build/test-report.json to test-r\</tspan>
<tspan x="10" y="794">eport</tspan>
<tspan x="10" y="810"></tspan>
<tspan x="10" y="826">-------------------------------------------------------</tspan>
<tspan x="10" y="842">| test-report - buildApp - node - linux v6.10.2 - 2017-04-11T12:02:20.454Z</tspan>
<tspan x="10" y="858">|   65182 ms            0 failed        6 passed      |</tspan>
<tspan x="10" y="874">-------------------------------------------------------</tspan>
<tspan x="10" y="890"></tspan>
<tspan x="10" y="906">created test-report file:///home/travis/build/npmtest/node-npmtest-yarn/tmp/build/test-report.ht\</tspan>
<tspan x="10" y="922">ml</tspan>
<tspan x="10" y="938"></tspan>
<tspan x="10" y="954"></tspan>
<tspan x="10" y="970">npmTest - 0 failed tests</tspan>
<tspan x="10" y="986"></tspan>
<tspan x="10" y="1002"></tspan>
<tspan x="10" y="1018">[MODE_BUILD=npmTest] - 2017-04-11T12:03:28Z - EXIT_CODE - 0</tspan>
</text>
</svg>
